<svg id="svg" version="1.1" xmlns="http://www.w3.org/2000/svg" xmlns:xlink="http://www.w3.org/1999/xlink" width="400" height="612.9032258064516" viewBox="0, 0, 400,612.9032258064516"><g id="svgg"><path id="path0" d="M0.000 13.233 C 0.000 26.432,0.261 28.733,1.332 24.967 C 2.316 21.507,3.558 18.384,4.212 17.731 C 4.535 17.407,4.800 16.979,4.800 16.780 C 4.800 16.308,9.959 9.846,10.492 9.650 C 10.717 9.568,11.216 9.208,11.602 8.850 C 11.989 8.493,12.788 7.840,13.378 7.400 C 13.968 6.960,14.820 6.264,15.272 5.854 C 16.468 4.766,22.149 2.001,24.294 1.463 C 28.994 0.283,26.851 0.000,13.233 0.000 L 0.000 0.000 0.000 13.233 M373.697 0.500 C 373.788 0.775,374.692 1.208,375.706 1.463 C 377.851 2.001,383.532 4.766,384.728 5.854 C 385.180 6.264,386.032 6.960,386.622 7.400 C 387.212 7.840,388.011 8.493,388.398 8.850 C 388.784 9.208,389.283 9.568,389.508 9.650 C 390.019 9.838,395.200 16.298,395.200 16.747 C 395.200 16.929,395.560 17.493,396.000 18.000 C 396.440 18.507,396.800 19.174,396.800 19.481 C 396.800 19.788,397.092 20.605,397.450 21.296 C 397.807 21.987,398.302 23.360,398.550 24.346 C 399.716 28.990,400.000 26.814,400.000 13.233 L 400.000 0.000 386.767 0.000 C 376.359 0.000,373.568 0.107,373.697 0.500 M29.200 1.990 C 28.430 2.155,27.293 2.495,26.674 2.745 C 26.055 2.995,25.100 3.200,24.553 3.200 C 23.702 3.200,22.096 3.872,19.600 5.273 C 19.270 5.459,18.280 5.974,17.400 6.419 C 14.437 7.916,13.883 8.328,10.999 11.174 C 9.366 12.786,7.649 14.952,7.023 16.190 C 6.417 17.387,5.669 18.577,5.361 18.833 C 5.052 19.089,4.800 19.598,4.800 19.964 C 4.800 20.331,4.440 21.337,4.000 22.200 C 3.560 23.063,3.197 24.136,3.194 24.585 C 3.191 25.033,2.876 26.210,2.494 27.200 C 1.410 30.012,1.416 582.862,2.500 585.508 C 2.885 586.448,3.200 587.598,3.200 588.064 C 3.200 588.531,3.540 589.652,3.954 590.556 C 4.369 591.460,4.913 592.650,5.162 593.200 C 5.412 593.750,6.053 594.920,6.587 595.800 C 7.122 596.680,7.752 597.827,7.988 598.349 C 8.655 599.823,13.895 604.607,15.952 605.621 C 16.969 606.122,18.229 606.862,18.754 607.266 C 19.279 607.670,20.022 608.000,20.405 608.000 C 20.788 608.000,21.322 608.265,21.591 608.589 C 21.860 608.914,22.737 609.281,23.540 609.406 C 24.343 609.531,26.080 609.940,27.400 610.316 C 31.117 611.375,368.883 611.375,372.600 610.316 C 373.920 609.940,375.657 609.531,376.460 609.406 C 377.263 609.281,378.140 608.914,378.409 608.589 C 378.678 608.265,379.212 608.000,379.595 608.000 C 379.978 608.000,380.721 607.670,381.246 607.266 C 381.771 606.862,383.031 606.122,384.048 605.621 C 386.105 604.607,391.345 599.823,392.012 598.349 C 392.248 597.827,392.878 596.680,393.413 595.800 C 393.947 594.920,394.588 593.750,394.838 593.200 C 395.087 592.650,395.631 591.460,396.046 590.556 C 396.460 589.652,396.800 588.531,396.800 588.064 C 396.800 587.598,397.115 586.448,397.500 585.508 C 398.584 582.862,398.590 30.012,397.506 27.200 C 397.124 26.210,396.809 25.033,396.806 24.585 C 396.803 24.136,396.440 23.063,396.000 22.200 C 395.560 21.337,395.200 20.331,395.200 19.964 C 395.200 19.598,394.948 19.089,394.639 18.833 C 394.331 18.577,393.583 17.387,392.977 16.190 C 392.351 14.952,390.634 12.786,389.001 11.174 C 386.117 8.328,385.563 7.916,382.600 6.419 C 381.720 5.974,380.730 5.459,380.400 5.273 C 377.883 3.861,376.293 3.200,375.408 3.200 C 374.839 3.200,373.705 2.885,372.887 2.500 C 371.308 1.757,32.630 1.254,29.200 1.990 M343.317 26.564 C 344.903 26.874,346.994 27.241,347.963 27.379 C 348.933 27.517,350.193 27.880,350.763 28.185 C 351.334 28.491,353.044 29.323,354.564 30.035 C 362.955 33.964,371.306 44.117,372.632 52.000 C 372.762 52.770,373.123 54.697,373.434 56.283 C 374.036 59.350,374.283 96.936,373.743 103.324 L 373.485 106.368 372.558 105.639 C 371.785 105.030,368.000 99.809,368.000 99.350 C 368.000 97.938,357.442 86.498,351.186 81.132 C 347.163 77.681,337.302 71.200,336.074 71.200 C 335.930 71.200,334.909 70.757,333.806 70.215 C 330.607 68.644,324.075 66.209,320.600 65.292 C 311.894 62.996,311.015 62.851,300.600 62.004 C 291.491 61.263,282.641 61.851,271.200 63.957 C 269.990 64.180,268.100 64.528,267.000 64.731 C 264.110 65.265,259.562 66.403,258.400 66.883 C 257.850 67.111,256.410 67.524,255.200 67.801 C 253.990 68.078,252.370 68.529,251.600 68.804 C 245.937 70.824,244.143 71.490,240.692 72.855 C 238.542 73.705,236.618 74.400,236.415 74.400 C 235.780 74.400,219.383 82.259,217.200 83.610 C 216.870 83.814,213.360 85.811,209.400 88.047 C 195.575 95.856,178.277 108.123,164.349 119.999 C 162.671 121.429,160.513 123.230,159.554 124.000 C 158.595 124.770,156.884 126.300,155.751 127.400 C 154.617 128.500,151.477 131.470,148.771 134.000 C 139.167 142.982,125.124 157.529,119.740 164.072 C 118.893 165.102,116.134 168.432,113.608 171.472 C 111.082 174.513,108.882 177.180,108.718 177.400 C 108.554 177.620,107.471 178.944,106.310 180.343 C 105.150 181.741,103.930 183.275,103.600 183.750 C 103.270 184.226,100.908 187.402,98.350 190.808 C 89.949 201.996,81.719 214.066,74.762 225.400 C 72.737 228.700,70.673 232.030,70.177 232.800 C 65.521 240.028,51.638 266.258,46.889 276.801 C 45.948 278.891,44.829 281.255,44.402 282.057 C 43.975 282.858,42.799 285.558,41.788 288.057 C 40.778 290.555,39.584 293.410,39.137 294.400 C 38.689 295.390,38.078 296.740,37.779 297.400 C 37.147 298.796,35.674 302.690,34.375 306.400 C 33.875 307.830,33.314 309.200,33.130 309.444 C 32.946 309.688,32.542 310.678,32.231 311.644 C 31.921 312.610,31.193 314.660,30.613 316.200 C 30.034 317.740,29.392 319.540,29.186 320.200 C 28.245 323.224,26.642 325.814,26.353 324.778 C 25.752 322.625,25.961 59.766,26.566 56.683 C 26.877 55.097,27.242 53.080,27.376 52.200 C 28.622 44.030,37.114 33.716,45.800 29.822 C 47.120 29.230,48.650 28.511,49.200 28.223 C 49.750 27.936,52.090 27.391,54.400 27.012 C 56.710 26.633,58.675 26.250,58.767 26.161 C 59.310 25.636,340.606 26.034,343.317 26.564 M299.000 76.404 C 300.540 76.612,303.510 76.988,305.600 77.240 C 307.690 77.492,309.704 77.856,310.076 78.050 C 310.447 78.244,311.887 78.656,313.276 78.967 C 323.426 81.237,335.771 88.339,344.967 97.200 C 349.203 101.281,352.457 105.191,354.995 109.247 C 355.218 109.603,355.685 110.323,356.034 110.847 C 360.476 117.523,364.032 124.916,366.690 133.000 C 368.807 139.442,369.236 140.886,370.135 144.600 C 373.408 158.122,374.246 164.864,374.633 180.800 C 375.022 196.811,374.088 211.823,371.796 226.400 C 371.468 228.490,371.028 231.370,370.820 232.800 C 370.256 236.678,368.610 244.620,367.297 249.800 C 366.963 251.120,366.473 253.370,366.209 254.800 C 365.945 256.230,365.521 258.030,365.267 258.800 C 365.014 259.570,364.528 261.280,364.189 262.600 C 363.850 263.920,363.236 266.170,362.825 267.600 C 362.414 269.030,361.709 271.550,361.258 273.200 C 359.568 279.388,354.806 293.465,351.787 301.200 C 347.787 311.446,346.657 314.314,346.188 315.400 C 345.903 316.060,345.176 317.770,344.573 319.200 C 339.664 330.843,329.905 350.740,323.879 361.395 C 321.886 364.918,319.729 368.790,319.084 370.000 C 317.694 372.610,316.611 374.490,315.399 376.400 C 314.911 377.170,313.465 379.510,312.187 381.600 C 308.381 387.824,300.830 399.349,295.517 407.045 C 291.434 412.959,278.902 429.359,275.820 432.820 C 274.929 433.821,272.333 436.937,270.052 439.743 C 267.770 442.550,264.260 446.603,262.252 448.750 C 260.243 450.897,256.710 454.694,254.400 457.187 C 250.189 461.732,241.546 470.326,237.800 473.692 C 227.925 482.565,221.533 487.993,216.005 492.200 C 214.848 493.080,212.979 494.582,211.851 495.539 C 210.723 496.495,208.180 498.364,206.200 499.693 C 204.220 501.021,200.920 503.278,198.868 504.706 C 189.370 511.318,170.879 521.580,163.000 524.612 C 161.460 525.204,158.580 526.370,156.600 527.203 C 152.787 528.806,150.615 529.564,146.400 530.762 C 144.970 531.168,142.540 531.899,141.000 532.385 C 139.460 532.871,137.030 533.498,135.600 533.778 C 134.170 534.058,132.280 534.493,131.400 534.744 C 126.648 536.100,107.906 537.201,102.800 536.424 C 101.150 536.173,98.466 535.786,96.835 535.565 C 93.596 535.124,86.988 533.535,85.767 532.903 C 85.345 532.684,84.280 532.378,83.400 532.223 C 82.520 532.068,81.437 531.708,80.994 531.423 C 80.551 531.138,79.618 530.780,78.922 530.627 C 78.225 530.474,77.441 530.090,77.179 529.774 C 76.917 529.458,76.499 529.200,76.251 529.199 C 71.614 529.190,54.917 515.155,47.937 505.400 C 41.830 496.864,36.511 485.709,33.251 474.600 C 31.332 468.058,30.831 466.080,30.566 464.000 C 30.412 462.790,30.123 461.359,29.923 460.820 C 29.723 460.281,29.292 457.851,28.966 455.420 C 28.639 452.989,28.214 450.010,28.020 448.800 C 26.654 440.269,26.646 411.169,28.007 401.000 C 28.213 399.460,28.569 396.490,28.798 394.400 C 29.785 385.390,32.788 369.166,35.609 357.600 C 36.065 355.730,36.701 352.957,37.022 351.437 C 37.343 349.918,37.764 348.478,37.957 348.237 C 38.150 347.997,38.431 347.170,38.582 346.400 C 38.732 345.630,39.190 343.920,39.599 342.600 C 40.299 340.344,41.531 336.245,43.025 331.200 C 43.384 329.990,43.953 328.280,44.290 327.400 C 44.627 326.520,45.045 325.260,45.219 324.600 C 45.393 323.940,46.101 321.960,46.791 320.200 C 47.482 318.440,48.290 316.280,48.587 315.400 C 48.884 314.520,49.517 312.810,49.993 311.600 C 50.469 310.390,51.192 308.500,51.600 307.400 C 52.008 306.300,52.737 304.410,53.220 303.200 C 53.703 301.990,54.403 300.190,54.776 299.200 C 55.149 298.210,56.027 296.160,56.727 294.645 C 57.427 293.129,58.000 291.791,58.000 291.671 C 58.000 291.551,58.344 290.721,58.764 289.826 C 59.184 288.932,60.016 287.120,60.612 285.800 C 69.827 265.393,80.458 245.637,92.901 225.800 C 95.531 221.606,105.365 206.928,106.569 205.400 C 107.262 204.520,108.129 203.350,108.496 202.800 C 113.785 194.874,130.368 174.049,137.799 166.000 C 155.091 147.273,159.872 142.608,177.807 126.963 C 179.343 125.623,182.220 123.294,184.200 121.786 C 186.180 120.279,189.600 117.671,191.800 115.991 C 194.000 114.311,196.880 112.221,198.200 111.346 C 199.520 110.472,202.358 108.552,204.507 107.081 C 206.656 105.609,210.076 103.412,212.107 102.196 C 214.138 100.981,216.070 99.818,216.400 99.612 C 220.797 96.858,231.049 91.613,237.600 88.763 C 240.130 87.663,242.791 86.501,243.514 86.181 C 244.236 85.862,245.034 85.600,245.287 85.600 C 245.540 85.600,246.479 85.252,247.374 84.826 C 249.091 84.008,251.859 83.074,256.800 81.643 C 258.450 81.166,260.700 80.482,261.800 80.124 C 270.793 77.201,290.383 75.241,299.000 76.404 M373.975 421.800 C 373.980 505.239,373.841 554.389,373.597 555.400 C 373.385 556.280,373.020 558.170,372.787 559.600 C 371.351 568.407,363.941 578.007,355.200 582.385 C 353.330 583.322,351.309 584.346,350.710 584.661 C 350.110 584.976,348.059 585.411,346.153 585.628 C 344.246 585.844,341.947 586.192,341.043 586.401 C 338.715 586.939,62.011 586.933,59.175 586.395 C 58.001 586.173,55.542 585.820,53.711 585.612 C 51.879 585.404,49.890 584.974,49.290 584.657 C 48.691 584.340,46.789 583.387,45.063 582.540 C 41.551 580.816,36.261 576.572,34.055 573.709 C 31.910 570.926,29.206 566.676,29.203 566.084 C 29.201 565.800,28.862 564.900,28.448 564.084 C 28.034 563.268,27.573 561.790,27.423 560.800 C 27.272 559.810,26.878 557.830,26.545 556.400 C 25.897 553.607,25.852 507.214,26.498 506.569 C 26.992 506.075,28.390 507.616,30.701 511.200 C 40.956 527.103,56.106 539.245,73.600 545.584 C 78.125 547.224,80.655 547.986,82.321 548.211 C 83.354 548.350,85.010 548.718,86.000 549.029 C 89.507 550.130,103.797 551.380,108.800 551.024 C 118.322 550.345,125.963 549.589,127.344 549.187 C 128.193 548.940,130.353 548.496,132.144 548.199 C 135.512 547.642,139.313 546.723,141.400 545.961 C 142.060 545.721,143.590 545.288,144.800 545.000 C 146.010 544.712,147.630 544.258,148.400 543.991 C 149.170 543.723,150.700 543.191,151.800 542.808 C 152.900 542.425,155.701 541.367,158.024 540.456 C 160.348 539.545,162.406 538.800,162.598 538.800 C 162.790 538.800,163.724 538.440,164.674 538.000 C 165.623 537.560,167.255 536.821,168.300 536.359 C 177.524 532.275,190.797 525.089,200.000 519.198 C 200.990 518.564,202.700 517.482,203.800 516.793 C 209.895 512.978,230.257 497.938,232.200 495.817 C 232.420 495.577,234.040 494.215,235.799 492.790 C 239.701 489.631,241.691 487.856,249.400 480.663 C 265.928 465.239,282.677 446.884,295.995 429.600 C 298.284 426.630,300.265 424.110,300.399 424.000 C 300.532 423.890,301.262 422.907,302.021 421.815 C 302.779 420.724,305.144 417.394,307.275 414.415 C 309.407 411.437,311.529 408.460,311.992 407.800 C 312.455 407.140,313.501 405.660,314.317 404.511 C 316.163 401.912,321.884 393.055,324.983 388.000 C 326.264 385.910,328.052 383.040,328.956 381.622 C 329.860 380.203,330.780 378.730,331.000 378.347 C 331.220 377.964,332.002 376.622,332.739 375.363 C 333.475 374.105,334.620 372.068,335.283 370.838 C 335.946 369.607,337.579 366.638,338.912 364.240 C 340.246 361.842,342.019 358.602,342.852 357.040 C 345.716 351.669,354.000 334.656,354.000 334.143 C 354.000 334.017,354.521 332.809,355.157 331.457 C 358.390 324.592,359.510 322.111,359.790 321.200 C 359.960 320.650,360.236 320.020,360.404 319.800 C 360.761 319.333,362.800 314.272,362.800 313.852 C 362.800 313.695,363.337 312.419,363.992 311.016 C 365.335 308.144,368.627 299.435,369.290 297.000 C 369.530 296.120,369.968 295.045,370.263 294.611 C 370.558 294.177,370.800 293.561,370.800 293.243 C 370.800 292.924,371.385 291.424,372.099 289.908 L 373.399 287.153 373.683 288.477 C 373.839 289.205,373.970 349.200,373.975 421.800 M0.000 599.567 L 0.000 612.800 13.200 612.800 C 21.412 612.800,26.400 612.654,26.400 612.414 C 26.400 611.847,25.009 611.200,23.789 611.200 C 23.205 611.200,22.269 610.840,21.709 610.400 C 21.150 609.960,20.381 609.600,20.000 609.600 C 19.619 609.600,18.879 609.265,18.354 608.855 C 17.829 608.445,16.995 607.983,16.500 607.828 C 16.005 607.673,15.600 607.409,15.600 607.240 C 15.600 607.072,14.745 606.375,13.700 605.691 C 11.378 604.172,8.225 601.251,7.879 600.300 C 7.740 599.915,7.461 599.600,7.261 599.600 C 7.061 599.600,6.673 599.060,6.400 598.400 C 6.127 597.740,5.790 597.199,5.651 597.199 C 5.513 597.198,4.880 596.163,4.244 594.899 C 3.608 593.634,2.932 592.330,2.741 592.000 C 2.074 590.846,1.681 589.788,1.342 588.230 C 1.154 587.367,0.775 586.587,0.500 586.497 C 0.107 586.368,0.000 589.159,0.000 599.567 M398.790 587.426 C 398.576 587.990,398.400 588.793,398.400 589.209 C 398.400 590.038,395.052 596.605,394.190 597.468 C 393.894 597.763,393.538 598.364,393.399 598.802 C 393.260 599.241,392.973 599.600,392.760 599.600 C 392.548 599.600,392.260 599.915,392.121 600.300 C 391.775 601.251,388.622 604.172,386.300 605.691 C 385.255 606.375,384.400 607.072,384.400 607.240 C 384.400 607.409,383.995 607.673,383.500 607.828 C 383.005 607.983,382.171 608.445,381.646 608.855 C 381.121 609.265,380.381 609.600,380.000 609.600 C 379.619 609.600,378.850 609.960,378.291 610.400 C 377.731 610.840,376.795 611.200,376.211 611.200 C 374.991 611.200,373.600 611.847,373.600 612.414 C 373.600 612.654,378.588 612.800,386.800 612.800 L 400.000 612.800 400.000 599.600 C 400.000 586.684,399.808 584.749,398.790 587.426 " stroke="none" fill="#e1e5e0" fill-rule="evenodd"></path><path id="path1" d="M26.264 0.578 C 26.142 0.896,25.358 1.278,24.521 1.428 C 22.761 1.743,16.499 4.737,15.279 5.846 C 14.824 6.261,13.968 6.960,13.378 7.400 C 12.788 7.840,11.989 8.493,11.602 8.850 C 11.216 9.208,10.717 9.568,10.492 9.650 C 9.981 9.838,4.800 16.298,4.800 16.747 C 4.800 16.929,4.440 17.493,4.000 18.000 C 3.560 18.507,3.200 19.172,3.200 19.477 C 3.200 19.782,2.840 20.738,2.400 21.600 C 1.960 22.462,1.600 23.625,1.600 24.184 C 1.600 24.743,1.240 25.560,0.800 26.000 C -0.151 26.951,-0.228 28.619,0.601 30.282 C 1.427 31.937,1.326 582.034,0.500 582.860 C -0.192 583.552,-0.128 586.017,0.597 586.556 C 0.925 586.800,1.353 587.861,1.548 588.914 C 1.743 589.967,2.194 591.152,2.551 591.546 C 2.908 591.940,3.200 592.487,3.200 592.760 C 3.200 593.321,5.114 596.733,5.860 597.502 C 6.128 597.779,6.462 598.364,6.601 598.802 C 6.740 599.241,7.027 599.600,7.240 599.600 C 7.452 599.600,7.740 599.915,7.879 600.300 C 8.225 601.251,11.378 604.172,13.700 605.691 C 14.745 606.375,15.600 607.072,15.600 607.240 C 15.600 607.409,16.005 607.673,16.500 607.828 C 16.995 607.983,17.829 608.445,18.354 608.855 C 18.879 609.265,19.619 609.600,20.000 609.600 C 20.381 609.600,21.150 609.960,21.709 610.400 C 22.269 610.840,23.283 611.200,23.963 611.200 C 24.667 611.200,25.545 611.545,26.000 612.000 C 26.949 612.949,28.666 613.031,30.254 612.202 C 31.996 611.294,368.004 611.294,369.746 612.202 C 371.334 613.031,373.051 612.949,374.000 612.000 C 374.455 611.545,375.333 611.200,376.037 611.200 C 376.717 611.200,377.731 610.840,378.291 610.400 C 378.850 609.960,379.619 609.600,380.000 609.600 C 380.381 609.600,381.121 609.265,381.646 608.855 C 382.171 608.445,383.005 607.983,383.500 607.828 C 383.995 607.673,384.400 607.409,384.400 607.240 C 384.400 607.072,385.255 606.375,386.300 605.691 C 388.622 604.172,391.775 601.251,392.121 600.300 C 392.260 599.915,392.539 599.600,392.739 599.600 C 392.939 599.600,393.327 599.060,393.600 598.400 C 393.873 597.740,394.216 597.200,394.362 597.200 C 394.846 597.200,398.348 589.825,398.598 588.279 C 398.734 587.442,399.104 586.658,399.422 586.536 C 400.145 586.259,400.202 583.562,399.500 582.860 C 398.674 582.034,398.573 31.937,399.399 30.282 C 400.169 28.739,400.182 26.555,399.422 26.264 C 399.104 26.142,398.720 25.358,398.568 24.521 C 398.416 23.684,397.956 22.332,397.546 21.516 C 397.136 20.700,396.800 19.782,396.800 19.477 C 396.800 19.172,396.440 18.507,396.000 18.000 C 395.560 17.493,395.200 16.929,395.200 16.747 C 395.200 16.298,390.019 9.838,389.508 9.650 C 389.283 9.568,388.784 9.208,388.398 8.850 C 388.011 8.493,387.212 7.840,386.622 7.400 C 386.032 6.960,385.176 6.261,384.721 5.846 C 383.501 4.737,377.239 1.743,375.479 1.428 C 374.642 1.278,373.858 0.896,373.736 0.578 C 373.448 -0.172,371.602 -0.162,370.146 0.598 C 368.404 1.506,31.596 1.506,29.854 0.598 C 28.398 -0.162,26.552 -0.172,26.264 0.578 M372.887 2.500 C 373.705 2.885,374.839 3.200,375.408 3.200 C 376.293 3.200,377.883 3.861,380.400 5.273 C 380.730 5.459,381.720 5.974,382.600 6.419 C 385.563 7.916,386.117 8.328,389.001 11.174 C 390.634 12.786,392.351 14.952,392.977 16.190 C 393.583 17.387,394.331 18.577,394.639 18.833 C 394.948 19.089,395.200 19.598,395.200 19.964 C 395.200 20.331,395.560 21.337,396.000 22.200 C 396.440 23.063,396.803 24.136,396.806 24.585 C 396.809 25.033,397.124 26.210,397.506 27.200 C 398.590 30.012,398.584 582.862,397.500 585.508 C 397.115 586.448,396.800 587.598,396.800 588.064 C 396.800 588.531,396.460 589.652,396.046 590.556 C 395.631 591.460,395.087 592.650,394.838 593.200 C 394.588 593.750,393.947 594.920,393.413 595.800 C 392.878 596.680,392.248 597.827,392.012 598.349 C 391.345 599.823,386.105 604.607,384.048 605.621 C 383.031 606.122,381.771 606.862,381.246 607.266 C 380.721 607.670,379.978 608.000,379.595 608.000 C 379.212 608.000,378.678 608.265,378.409 608.589 C 378.140 608.914,377.263 609.281,376.460 609.406 C 375.657 609.531,373.920 609.940,372.600 610.316 C 368.883 611.375,31.117 611.375,27.400 610.316 C 26.080 609.940,24.343 609.531,23.540 609.406 C 22.737 609.281,21.860 608.914,21.591 608.589 C 21.322 608.265,20.788 608.000,20.405 608.000 C 20.022 608.000,19.279 607.670,18.754 607.266 C 18.229 606.862,16.969 606.122,15.952 605.621 C 13.895 604.607,8.655 599.823,7.988 598.349 C 7.752 597.827,7.122 596.680,6.587 595.800 C 6.053 594.920,5.412 593.750,5.162 593.200 C 4.913 592.650,4.369 591.460,3.954 590.556 C 3.540 589.652,3.200 588.531,3.200 588.064 C 3.200 587.598,2.885 586.448,2.500 585.508 C 1.416 582.862,1.410 30.012,2.494 27.200 C 2.876 26.210,3.191 25.033,3.194 24.585 C 3.197 24.136,3.560 23.063,4.000 22.200 C 4.440 21.337,4.800 20.331,4.800 19.964 C 4.800 19.598,5.052 19.089,5.361 18.833 C 5.669 18.577,6.417 17.387,7.023 16.190 C 7.649 14.952,9.366 12.786,10.999 11.174 C 13.883 8.328,14.437 7.916,17.400 6.419 C 18.280 5.974,19.270 5.459,19.600 5.273 C 22.096 3.872,23.702 3.200,24.553 3.200 C 25.100 3.200,26.055 2.995,26.674 2.745 C 27.293 2.495,28.430 2.155,29.200 1.990 C 32.630 1.254,371.308 1.757,372.887 2.500 M58.767 26.161 C 58.675 26.250,56.710 26.633,54.400 27.012 C 52.090 27.391,49.750 27.936,49.200 28.223 C 48.650 28.511,47.120 29.230,45.800 29.822 C 37.114 33.716,28.622 44.030,27.376 52.200 C 27.242 53.080,26.877 55.097,26.566 56.683 C 25.961 59.766,25.752 322.625,26.353 324.778 C 26.642 325.814,28.245 323.224,29.186 320.200 C 29.392 319.540,30.034 317.740,30.613 316.200 C 31.193 314.660,31.921 312.610,32.231 311.644 C 32.542 310.678,32.946 309.688,33.130 309.444 C 33.314 309.200,33.875 307.830,34.375 306.400 C 35.674 302.690,37.147 298.796,37.779 297.400 C 38.078 296.740,38.689 295.390,39.137 294.400 C 39.584 293.410,40.778 290.555,41.788 288.057 C 42.799 285.558,43.975 282.858,44.402 282.057 C 44.829 281.255,45.948 278.891,46.889 276.801 C 51.638 266.258,65.521 240.028,70.177 232.800 C 70.673 232.030,72.737 228.700,74.762 225.400 C 81.719 214.066,89.949 201.996,98.350 190.808 C 100.908 187.402,103.270 184.226,103.600 183.750 C 103.930 183.275,105.150 181.741,106.310 180.343 C 107.471 178.944,108.554 177.620,108.718 177.400 C 108.882 177.180,111.082 174.513,113.608 171.472 C 116.134 168.432,118.893 165.102,119.740 164.072 C 125.124 157.529,139.167 142.982,148.771 134.000 C 151.477 131.470,154.617 128.500,155.751 127.400 C 156.884 126.300,158.595 124.770,159.554 124.000 C 160.513 123.230,162.671 121.429,164.349 119.999 C 178.277 108.123,195.575 95.856,209.400 88.047 C 213.360 85.811,216.870 83.814,217.200 83.610 C 219.383 82.259,235.780 74.400,236.415 74.400 C 236.618 74.400,238.542 73.705,240.692 72.855 C 244.143 71.490,245.937 70.824,251.600 68.804 C 252.370 68.529,253.990 68.078,255.200 67.801 C 256.410 67.524,257.850 67.111,258.400 66.883 C 259.562 66.403,264.110 65.265,267.000 64.731 C 268.100 64.528,269.990 64.180,271.200 63.957 C 282.641 61.851,291.491 61.263,300.600 62.004 C 311.015 62.851,311.894 62.996,320.600 65.292 C 324.075 66.209,330.607 68.644,333.806 70.215 C 334.909 70.757,335.930 71.200,336.074 71.200 C 337.302 71.200,347.163 77.681,351.186 81.132 C 357.442 86.498,368.000 97.938,368.000 99.350 C 368.000 99.809,371.785 105.030,372.558 105.639 L 373.485 106.368 373.743 103.324 C 374.283 96.936,374.036 59.350,373.434 56.283 C 373.123 54.697,372.762 52.770,372.632 52.000 C 371.306 44.117,362.955 33.964,354.564 30.035 C 353.044 29.323,351.334 28.491,350.763 28.185 C 350.193 27.880,348.933 27.517,347.963 27.379 C 346.994 27.241,344.903 26.874,343.317 26.564 C 340.606 26.034,59.310 25.636,58.767 26.161 M284.600 76.290 C 277.258 76.825,266.260 78.674,261.800 80.124 C 260.700 80.482,258.450 81.166,256.800 81.643 C 251.859 83.074,249.091 84.008,247.374 84.826 C 246.479 85.252,245.540 85.600,245.287 85.600 C 245.034 85.600,244.236 85.862,243.514 86.181 C 242.791 86.501,240.130 87.663,237.600 88.763 C 231.049 91.613,220.797 96.858,216.400 99.612 C 216.070 99.818,214.138 100.981,212.107 102.196 C 210.076 103.412,206.656 105.609,204.507 107.081 C 202.358 108.552,199.520 110.472,198.200 111.346 C 196.880 112.221,194.000 114.311,191.800 115.991 C 189.600 117.671,186.180 120.279,184.200 121.786 C 182.220 123.294,179.343 125.623,177.807 126.963 C 159.872 142.608,155.091 147.273,137.799 166.000 C 130.368 174.049,113.785 194.874,108.496 202.800 C 108.129 203.350,107.262 204.520,106.569 205.400 C 105.365 206.928,95.531 221.606,92.901 225.800 C 80.458 245.637,69.827 265.393,60.612 285.800 C 60.016 287.120,59.184 288.932,58.764 289.826 C 58.344 290.721,58.000 291.551,58.000 291.671 C 58.000 291.791,57.427 293.129,56.727 294.645 C 56.027 296.160,55.149 298.210,54.776 299.200 C 54.403 300.190,53.703 301.990,53.220 303.200 C 52.737 304.410,52.008 306.300,51.600 307.400 C 51.192 308.500,50.469 310.390,49.993 311.600 C 49.517 312.810,48.884 314.520,48.587 315.400 C 48.290 316.280,47.482 318.440,46.791 320.200 C 46.101 321.960,45.393 323.940,45.219 324.600 C 45.045 325.260,44.627 326.520,44.290 327.400 C 43.953 328.280,43.384 329.990,43.025 331.200 C 41.531 336.245,40.299 340.344,39.599 342.600 C 39.190 343.920,38.732 345.630,38.582 346.400 C 38.431 347.170,38.150 347.997,37.957 348.237 C 37.764 348.478,37.343 349.918,37.022 351.437 C 36.701 352.957,36.065 355.730,35.609 357.600 C 32.788 369.166,29.785 385.390,28.798 394.400 C 28.569 396.490,28.213 399.460,28.007 401.000 C 26.646 411.169,26.654 440.269,28.020 448.800 C 28.214 450.010,28.639 452.989,28.966 455.420 C 29.292 457.851,29.723 460.281,29.923 460.820 C 30.123 461.359,30.412 462.790,30.566 464.000 C 30.831 466.080,31.332 468.058,33.251 474.600 C 40.413 499.008,54.856 518.195,73.400 527.937 C 74.720 528.631,76.003 529.199,76.251 529.199 C 76.499 529.200,76.917 529.458,77.179 529.774 C 77.441 530.090,78.225 530.474,78.922 530.627 C 79.618 530.780,80.551 531.138,80.994 531.423 C 81.437 531.708,82.520 532.068,83.400 532.223 C 84.280 532.378,85.345 532.684,85.767 532.903 C 86.988 533.535,93.596 535.124,96.835 535.565 C 98.466 535.786,101.150 536.173,102.800 536.424 C 107.906 537.201,126.648 536.100,131.400 534.744 C 132.280 534.493,134.170 534.058,135.600 533.778 C 137.030 533.498,139.460 532.871,141.000 532.385 C 142.540 531.899,144.970 531.168,146.400 530.762 C 150.615 529.564,152.787 528.806,156.600 527.203 C 158.580 526.370,161.460 525.204,163.000 524.612 C 170.879 521.580,189.370 511.318,198.868 504.706 C 200.920 503.278,204.220 501.021,206.200 499.693 C 208.180 498.364,210.723 496.495,211.851 495.539 C 212.979 494.582,214.848 493.080,216.005 492.200 C 221.533 487.993,227.925 482.565,237.800 473.692 C 241.546 470.326,250.189 461.732,254.400 457.187 C 256.710 454.694,260.243 450.897,262.252 448.750 C 264.260 446.603,267.770 442.550,270.052 439.743 C 272.333 436.937,274.929 433.821,275.820 432.820 C 278.902 429.359,291.434 412.959,295.517 407.045 C 300.830 399.349,308.381 387.824,312.187 381.600 C 313.465 379.510,314.911 377.170,315.399 376.400 C 316.611 374.490,317.694 372.610,319.084 370.000 C 319.729 368.790,321.886 364.918,323.879 361.395 C 329.905 350.740,339.664 330.843,344.573 319.200 C 345.176 317.770,345.903 316.060,346.188 315.400 C 346.657 314.314,347.787 311.446,351.787 301.200 C 354.806 293.465,359.568 279.388,361.258 273.200 C 361.709 271.550,362.414 269.030,362.825 267.600 C 363.236 266.170,363.850 263.920,364.189 262.600 C 364.528 261.280,365.014 259.570,365.267 258.800 C 365.521 258.030,365.945 256.230,366.209 254.800 C 366.473 253.370,366.963 251.120,367.297 249.800 C 368.610 244.620,370.256 236.678,370.820 232.800 C 371.028 231.370,371.468 228.490,371.796 226.400 C 374.088 211.823,375.022 196.811,374.633 180.800 C 374.246 164.864,373.408 158.122,370.135 144.600 C 369.236 140.886,368.807 139.442,366.690 133.000 C 364.032 124.916,360.476 117.523,356.034 110.847 C 355.685 110.323,355.218 109.603,354.995 109.247 C 350.629 102.268,343.628 95.132,335.048 88.916 C 330.327 85.495,318.690 80.177,313.276 78.967 C 311.887 78.656,310.447 78.244,310.076 78.050 C 309.704 77.856,307.690 77.492,305.600 77.240 C 303.510 76.988,300.540 76.612,299.000 76.404 C 296.318 76.042,288.817 75.983,284.600 76.290 M372.099 289.908 C 371.385 291.424,370.800 292.924,370.800 293.243 C 370.800 293.561,370.558 294.177,370.263 294.611 C 369.968 295.045,369.530 296.120,369.290 297.000 C 368.627 299.435,365.335 308.144,363.992 311.016 C 363.337 312.419,362.800 313.695,362.800 313.852 C 362.800 314.272,360.761 319.333,360.404 319.800 C 360.236 320.020,359.960 320.650,359.790 321.200 C 359.510 322.111,358.390 324.592,355.157 331.457 C 354.521 332.809,354.000 334.017,354.000 334.143 C 354.000 334.656,345.716 351.669,342.852 357.040 C 342.019 358.602,340.246 361.842,338.912 364.240 C 337.579 366.638,335.946 369.607,335.283 370.838 C 334.620 372.068,333.475 374.105,332.739 375.363 C 332.002 376.622,331.220 377.964,331.000 378.347 C 330.780 378.730,329.860 380.203,328.956 381.622 C 328.052 383.040,326.264 385.910,324.983 388.000 C 321.884 393.055,316.163 401.912,314.317 404.511 C 313.501 405.660,312.455 407.140,311.992 407.800 C 311.529 408.460,309.407 411.437,307.275 414.415 C 305.144 417.394,302.779 420.724,302.021 421.815 C 301.262 422.907,300.532 423.890,300.399 424.000 C 300.265 424.110,298.284 426.630,295.995 429.600 C 282.677 446.884,265.928 465.239,249.400 480.663 C 241.691 487.856,239.701 489.631,235.799 492.790 C 234.040 494.215,232.420 495.577,232.200 495.817 C 230.257 497.938,209.895 512.978,203.800 516.793 C 202.700 517.482,200.990 518.564,200.000 519.198 C 190.797 525.089,177.524 532.275,168.300 536.359 C 167.255 536.821,165.623 537.560,164.674 538.000 C 163.724 538.440,162.790 538.800,162.598 538.800 C 162.406 538.800,160.348 539.545,158.024 540.456 C 155.701 541.367,152.900 542.425,151.800 542.808 C 150.700 543.191,149.170 543.723,148.400 543.991 C 147.630 544.258,146.010 544.712,144.800 545.000 C 143.590 545.288,142.060 545.721,141.400 545.961 C 139.313 546.723,135.512 547.642,132.144 548.199 C 130.353 548.496,128.193 548.940,127.344 549.187 C 125.963 549.589,118.322 550.345,108.800 551.024 C 103.797 551.380,89.507 550.130,86.000 549.029 C 85.010 548.718,83.354 548.350,82.321 548.211 C 80.655 547.986,78.125 547.224,73.600 545.584 C 56.106 539.245,40.956 527.103,30.701 511.200 C 28.390 507.616,26.992 506.075,26.498 506.569 C 25.852 507.214,25.897 553.607,26.545 556.400 C 26.878 557.830,27.272 559.810,27.423 560.800 C 27.573 561.790,28.034 563.268,28.448 564.084 C 28.862 564.900,29.201 565.800,29.203 566.084 C 29.206 566.676,31.910 570.926,34.055 573.709 C 36.261 576.572,41.551 580.816,45.063 582.540 C 46.789 583.387,48.691 584.340,49.290 584.657 C 49.890 584.974,51.879 585.404,53.711 585.612 C 55.542 585.820,58.001 586.173,59.175 586.395 C 62.011 586.933,338.715 586.939,341.043 586.401 C 341.947 586.192,344.246 585.844,346.153 585.628 C 348.059 585.411,350.110 584.976,350.710 584.661 C 351.309 584.346,353.330 583.322,355.200 582.385 C 363.941 578.007,371.351 568.407,372.787 559.600 C 373.020 558.170,373.385 556.280,373.597 555.400 C 374.046 553.536,374.131 290.565,373.683 288.477 L 373.399 287.153 372.099 289.908 " stroke="none" fill="#348b14" fill-rule="evenodd"></path><path id="path2" d="M29.540 0.500 C 30.276 1.236,369.724 1.236,370.460 0.500 C 370.860 0.100,336.768 -0.000,200.000 -0.000 C 63.232 -0.000,29.140 0.100,29.540 0.500 M0.000 306.400 C 0.000 527.968,0.100 583.260,0.500 582.860 C 1.236 582.124,1.236 30.676,0.500 29.940 C 0.100 29.540,0.000 84.832,0.000 306.400 M399.189 30.629 C 398.552 32.303,398.862 582.222,399.500 582.860 C 399.900 583.260,400.000 527.984,400.000 306.480 C 400.000 154.196,399.906 29.600,399.790 29.600 C 399.675 29.600,399.404 30.063,399.189 30.629 M30.500 612.012 C 30.005 612.211,29.600 612.470,29.600 612.587 C 29.600 612.704,106.316 612.800,200.080 612.800 C 336.464 612.800,370.460 612.700,370.060 612.300 C 369.449 611.689,32.013 611.402,30.500 612.012 " stroke="none" fill="#050505" fill-rule="evenodd"></path></g></svg>