<?xml version="1.0" standalone="no"?>
<!DOCTYPE svg PUBLIC "-//W3C//DTD SVG 20010904//EN"
 "http://www.w3.org/TR/2001/REC-SVG-20010904/DTD/svg10.dtd">
<svg version="1.0" xmlns="http://www.w3.org/2000/svg"
 width="759.000000pt" height="759.000000pt" viewBox="0 0 759.000000 759.000000"
 preserveAspectRatio="xMidYMid meet">
<metadata>
Created by potrace 1.14, written by Peter Selinger 2001-2017
</metadata>
<g transform="translate(0.000000,759.000000) scale(0.100000,-0.100000)"
fill="#000000" stroke="none">
<path d="M1771 7576 c-14 -8 -31 -12 -38 -9 -7 3 -13 0 -13 -6 0 -6 -7 -8 -15
-5 -8 4 -15 1 -15 -6 0 -6 -4 -8 -10 -5 -5 3 -10 1 -10 -5 0 -6 -4 -8 -10 -5
-5 3 -10 1 -10 -5 0 -6 -4 -8 -10 -5 -5 3 -10 1 -10 -5 0 -6 -5 -8 -10 -5 -6
4 -27 -11 -47 -32 -20 -21 -31 -29 -24 -18 8 11 -12 -6 -43 -38 -31 -32 -54
-62 -51 -67 3 -4 -2 -11 -11 -14 -8 -3 -12 -10 -9 -16 3 -5 1 -10 -5 -10 -6 0
-8 -4 -5 -10 3 -5 1 -10 -5 -10 -6 0 -8 -4 -5 -10 3 -5 1 -10 -5 -10 -6 0 -8
-4 -5 -10 3 -5 1 -10 -5 -10 -7 0 -10 -7 -6 -15 3 -8 1 -15 -5 -15 -5 0 -9 -6
-8 -12 1 -7 -3 -26 -9 -41 -15 -35 -17 -6737 -3 -6737 5 0 7 -9 4 -20 -3 -11
-1 -20 3 -20 5 0 10 -12 11 -26 0 -15 5 -29 10 -33 4 -3 10 -15 11 -26 2 -10
11 -25 20 -33 13 -10 13 -12 2 -7 -13 6 -13 5 0 -7 8 -7 16 -20 18 -28 2 -8
14 -25 27 -37 12 -12 25 -26 27 -30 2 -4 21 -24 43 -43 21 -19 35 -28 30 -20
-6 9 -2 7 9 -4 22 -25 106 -67 118 -60 4 3 8 0 8 -6 0 -7 7 -10 15 -6 8 3 15
0 15 -5 0 -6 9 -9 20 -6 11 3 23 1 26 -4 3 -6 19 -8 35 -5 16 2 29 0 29 -5 0
-5 777 -9 1940 -9 1067 0 1940 4 1940 8 0 5 15 9 33 9 46 0 93 10 119 25 13 7
26 11 31 10 4 -1 7 3 7 9 0 5 5 7 10 4 6 -3 10 -1 10 6 0 7 3 9 7 6 3 -4 12 1
20 11 10 11 12 12 8 2 -4 -8 3 -4 15 10 12 14 18 18 14 10 -4 -8 11 1 35 20
43 36 128 141 101 126 -8 -5 -5 1 8 13 12 12 20 26 17 32 -4 5 -1 9 5 9 6 0 9
4 5 9 -3 5 -1 12 5 16 6 4 8 11 5 16 -4 5 -1 9 5 9 7 0 10 7 7 15 -4 8 -2 17
4 21 6 3 8 12 5 20 -3 8 -1 14 4 14 7 0 10 1203 10 3370 0 2008 -4 3370 -9
3370 -5 0 -7 9 -4 20 3 11 0 20 -6 20 -5 0 -8 7 -5 15 4 8 1 15 -6 15 -6 0 -8
5 -5 10 3 6 2 10 -2 10 -5 0 -10 10 -10 22 -1 13 -8 27 -16 33 -8 5 -12 15
-10 21 2 7 -7 20 -20 30 -13 11 -23 21 -23 24 1 3 -8 17 -20 30 -26 32 -93 91
-74 66 15 -19 14 -19 -13 -2 -15 10 -27 23 -27 29 0 6 -3 8 -6 4 -3 -3 -15 4
-26 15 -11 11 -26 17 -33 14 -8 -3 -15 -1 -17 4 -2 5 -14 11 -28 12 -14 2 -28
8 -32 13 -5 7 -692 11 -2020 12 -1683 2 -2017 0 -2037 -11z m4319 -7389 c0 -2
-12 -14 -27 -28 l-28 -24 24 28 c23 25 31 32 31 24z"/>
</g>
</svg>
